<!--?xml version="1.0" standalone="no"?-->
              <svg id="sw-js-blob-svg" viewBox="0 0 100 100" xmlns="http://www.w3.org/2000/svg" version="1.1">
                    <defs> 
                        <linearGradient id="sw-gradient" x1="0" x2="1" y1="1" y2="0">
                            <stop id="stop1" stop-color="rgb(151 153 209)" offset="0%"></stop>
                            <stop id="stop2" stop-color="rgb(151 153 209)" offset="100%"></stop>
                        </linearGradient>
                    </defs>
                <path fill="url(#sw-gradient)" d="M23.4,-29.8C28.6,-23.5,29.8,-14.5,30,-6.3C30.2,1.9,29.4,9.2,25.7,14.1C22,19.1,15.4,21.7,8.5,24.8C1.6,28,-5.7,31.7,-10.8,29.8C-15.9,27.9,-18.9,20.3,-24.5,13C-30,5.7,-38.1,-1.2,-38.7,-8.4C-39.2,-15.5,-32.4,-22.9,-24.7,-28.8C-17,-34.6,-8.5,-38.8,0.3,-39.2C9.1,-39.5,18.2,-36.1,23.4,-29.8Z" width="100%" height="100%" transform="translate(50 50)" stroke-width="0" style="transition: all 0.3s ease 0s;"></path>
              </svg>